<svg width="76" height="76" viewBox="0 0 76 76" fill="none" xmlns="http://www.w3.org/2000/svg">
<circle cx="38" cy="38" r="38" fill="#E4E4E4"/>
<path d="M12.0747 37C12.1441 43.0358 11.8389 45.9812 11.5747 51.5C11.8352 52.2118 12.0749 52.3794 12.5747 52.5H14.0747C14.6576 52.2797 14.8699 52.0554 15.0747 51.5C15.0117 45.9089 14.0872 42.9075 14.5747 37C14.4685 36.0354 14.7322 35.7394 15.5747 35.5C16.3293 33.3978 16.5585 32.1948 16.5747 30V26C16.5747 24 14.5747 23.0001 13.0747 23.0001C11.5747 23.0001 9.95686 24.2834 10.0747 26C9.9696 27.2064 9.98077 28.1194 10.0747 30C10.1138 32.295 10.3403 33.4956 11.0747 35.5C11.9909 35.8432 12.2628 36.1666 12.0747 37Z" stroke="black" stroke-width="2"/>
<path d="M60.0747 36.9999C60.1441 43.0357 59.8389 45.9811 59.5747 51.4999C59.8352 52.2117 60.0749 52.3793 60.5747 52.4999H62.0747C62.6576 52.2796 62.8699 52.0553 63.0747 51.4999C62.6339 45.1859 62.5645 41.6642 63.5747 35.4999C64.3293 33.3977 64.5585 32.1947 64.5747 29.9999V25.9999C64.5747 23.9999 62.5747 23 61.0747 23H60.0747V36.9999Z" stroke="black" stroke-width="2"/>
<circle cx="38.0747" cy="37.5" r="17.5" stroke="black" stroke-width="2"/>
<circle cx="38.0747" cy="37.5" r="12.5" stroke="black" stroke-width="2"/>
</svg>
