<svg width="76" height="76" viewBox="0 0 76 76" fill="none" xmlns="http://www.w3.org/2000/svg">
<circle cx="38" cy="38" r="38" fill="#E4E4E4"/>
<path d="M20.5 60H26V43.5C26.1785 42.2363 26.5169 41.8099 27.5 41.5H37.5C38.623 41.9444 38.9124 42.4068 39 43.5V60H56C57.2028 59.6491 57.7264 59.2289 58 57.5V41L40.5 23C38.6722 21.4677 37.6888 21.4768 36 23L18.5 41V57.5C18.9111 58.9109 19.3298 59.4808 20.5 60Z" stroke="black" stroke-width="2"/>
<path d="M11 38.5C10.9811 37.7685 11.1404 37.4552 11.5 37L36.5 12C37.6298 11.0565 38.2943 11.0435 39.5 12L64.5 37C64.9891 37.5497 65.0918 37.879 65 38.5C64.7556 39.2777 64.4403 39.6133 63.5 40C62.8597 39.9806 62.5353 39.8621 62 39.5L38 15L14 39.5C13.4762 39.9998 13.1448 40.0949 12.5 40C11.5013 39.6772 11.1475 39.3649 11 38.5Z" stroke="black" stroke-width="2"/>
</svg>
