<svg width="76" height="76" viewBox="0 0 76 76" fill="none" xmlns="http://www.w3.org/2000/svg">
<circle cx="38" cy="38" r="38" fill="#E4E4E4"/>
<path d="M56.4729 20.3256C54.922 18.8259 52.8798 18.0001 50.7225 18.0001C48.5652 18.0001 46.523 18.826 44.972 20.3257L44.868 20.4264C42.3435 22.8676 41.6359 26.6502 43.1076 29.8389L45.7136 35.4858V54.5055C45.7136 56.4296 47.2789 57.9949 49.2031 57.9949H51.9105C53.8345 57.9949 55.3998 56.4296 55.3998 54.5055V35.4941L58.1426 29.9284C59.7371 26.6925 59.0662 22.8334 56.4729 20.3256ZM53.8375 54.5054C53.8375 55.568 52.973 56.4326 51.9104 56.4326H49.203C48.1403 56.4326 47.2758 55.568 47.2758 54.5054V42.6062H50.7145V47.641C50.7145 48.0724 51.0641 48.4222 51.4956 48.4222C51.927 48.4222 52.2768 48.0724 52.2768 47.641V42.6062H53.8374V54.5054H53.8375ZM47.2758 41.0439V36.0765H48.4608C48.462 36.0765 48.4631 36.0767 48.4641 36.0767C48.4654 36.0767 48.4666 36.0765 48.4678 36.0765H52.873C52.8742 36.0765 52.8755 36.0767 52.8766 36.0767C52.8778 36.0767 52.8789 36.0765 52.88 36.0765H53.8374V41.0439H47.2758ZM56.7411 29.2379L54.141 34.5143H53.7979L54.4274 30.7369C54.4984 30.3114 54.2109 29.9089 53.7853 29.8379C53.3598 29.7672 52.9573 30.0545 52.8863 30.4801L52.214 34.5143H51.3378V30.6085C51.3378 30.1772 50.9881 29.8273 50.5566 29.8273C50.1252 29.8273 49.7755 30.1771 49.7755 30.6085V34.5143H49.1268L48.4544 30.48C48.3835 30.0547 47.9809 29.7672 47.5554 29.8379C47.1298 29.9089 46.8423 30.3114 46.9133 30.737L47.5429 34.5143H46.9857L44.5259 29.1843C43.3323 26.5979 43.9062 23.5297 45.9541 21.5494L46.0581 21.4487C48.6737 18.9197 52.7713 18.9197 55.3867 21.4487C57.4903 23.4829 58.0346 26.6131 56.7411 29.2379Z" fill="black"/>
<path d="M28.4674 43.0047V39.5598C28.4674 38.9206 28.0812 38.3705 27.5301 38.1289V33.3021C27.5301 32.4367 27.0562 31.6453 26.2934 31.2365L23.7937 29.8971C23.0606 29.5044 22.1969 29.5247 21.4832 29.9521C20.7695 30.3792 20.3435 31.1308 20.3435 31.9626V38.1288C19.7924 38.3704 19.4062 38.9205 19.4062 39.5597V43.0047C18.6177 43.0833 18 43.7503 18 44.5591V55.6514C18 56.9436 19.0512 57.9949 20.3434 57.9949H27.53C28.8222 57.9949 29.8734 56.9436 29.8734 55.6514V44.5591C29.8735 43.7504 29.2558 43.0834 28.4674 43.0047ZM21.9058 31.9626C21.9058 31.563 22.1715 31.3608 22.2856 31.2924C22.3998 31.2241 22.7036 31.0855 23.0558 31.2741L25.5555 32.6135C25.8098 32.7498 25.9676 33.0136 25.9676 33.302V37.9974H21.9058V31.9626ZM20.9684 39.5598H21.1246H26.7489H26.9051V42.9968H20.9684V39.5598H20.9684ZM28.3112 55.6515C28.3112 56.0822 27.9608 56.4327 27.53 56.4327H26.1239V50.496C26.1239 50.0646 25.7742 49.7148 25.3427 49.7148C24.9113 49.7148 24.5616 50.0646 24.5616 50.496V56.4327H20.3434C19.9127 56.4327 19.5623 56.0823 19.5623 55.6515V44.5592H28.3112V55.6515Z" fill="black"/>
<path d="M26.895 46.9752C26.7496 46.8299 26.5489 46.7463 26.3427 46.7463C26.1372 46.7463 25.9357 46.8299 25.7904 46.9752C25.6451 47.1206 25.5615 47.322 25.5615 47.5275C25.5615 47.733 25.6451 47.9345 25.7904 48.0797C25.9357 48.225 26.1372 48.3087 26.3427 48.3087C26.5489 48.3087 26.7496 48.2251 26.895 48.0797C27.0403 47.9345 27.1239 47.733 27.1239 47.5275C27.1239 47.322 27.0403 47.1205 26.895 46.9752Z" fill="black"/>
<path d="M41.9658 37.2164H38.3725V29.5611H39.7014C40.1328 29.5611 40.4826 29.2113 40.4826 28.7799C40.4826 28.3485 40.1329 27.9987 39.7014 27.9987H38.3725V27.0614H39.7014C40.1328 27.0614 40.4826 26.7116 40.4826 26.2802C40.4826 25.8488 40.1329 25.499 39.7014 25.499H38.3725V24.5617H39.7014C40.1328 24.5617 40.4826 24.2119 40.4826 23.7805C40.4826 23.3491 40.1329 22.9994 39.7014 22.9994H38.3725V22.062H39.7014C40.1328 22.062 40.4826 21.7123 40.4826 21.2809C40.4826 20.8494 40.1329 20.4997 39.7014 20.4997H38.3725V19.5623H39.7014C40.1328 19.5623 40.4826 19.2126 40.4826 18.7812C40.4826 18.3498 40.1329 18 39.7014 18H35.4814C35.05 18 34.7002 18.3498 34.7002 18.7812C34.7002 19.2126 35.0499 19.5623 35.4814 19.5623H36.8102V20.4997H35.4813C35.0499 20.4997 34.7002 20.8494 34.7002 21.2809C34.7002 21.7123 35.0498 22.062 35.4813 22.062H36.8102V22.9994H35.4813C35.0499 22.9994 34.7002 23.3491 34.7002 23.7805C34.7002 24.2119 35.0498 24.5617 35.4813 24.5617H36.8102V25.499H35.4813C35.0499 25.499 34.7002 25.8488 34.7002 26.2802C34.7002 26.7116 35.0498 27.0614 35.4813 27.0614H36.8102V27.9987H35.4813C35.0499 27.9987 34.7002 28.3485 34.7002 28.7799C34.7002 29.2113 35.0498 29.5611 35.4813 29.5611H36.8102V37.2164H33.217C32.7856 37.2164 32.4358 37.5661 32.4358 37.9975V46.7232C32.4358 50.5655 33.4884 54.333 35.48 57.6187C35.6216 57.8522 35.8748 57.9948 36.148 57.9948H39.0347C39.3079 57.9948 39.5612 57.8522 39.7027 57.6187C41.6943 54.333 42.7469 50.5654 42.7469 46.7232V37.9975C42.7469 37.566 42.3972 37.2164 41.9658 37.2164ZM41.1846 46.7231C41.1846 50.1338 40.2883 53.4814 38.5889 56.4326H36.5936C34.8943 53.4813 33.998 50.1338 33.998 46.7231V42.2156H38.7052C39.1366 42.2156 39.4864 41.8659 39.4864 41.4345C39.4864 41.0031 39.1367 40.6533 38.7052 40.6533H33.998V38.7785H41.1845V46.7231H41.1846Z" fill="black"/>
<path d="M52.048 49.8225C51.9027 49.6772 51.7012 49.5936 51.4958 49.5936C51.2903 49.5936 51.0888 49.6771 50.9435 49.8225C50.7982 49.9678 50.7146 50.1693 50.7146 50.3748C50.7146 50.5803 50.7982 50.7818 50.9435 50.927C51.0888 51.0731 51.2903 51.156 51.4958 51.156C51.7012 51.156 51.9027 51.0731 52.048 50.927C52.1933 50.7818 52.2769 50.581 52.2769 50.3748C52.2769 50.1693 52.1933 49.9678 52.048 49.8225Z" fill="black"/>
</svg>
