<svg width="76" height="76" viewBox="0 0 76 76" fill="none" xmlns="http://www.w3.org/2000/svg">
<circle cx="38" cy="38" r="38" fill="#E4E4E4"/>
<path d="M29.5 24.9999V21.4999H46.5V24.9999M29.5 24.9999H46.5M29.5 24.9999H26.5C23.7277 25.7497 22.8693 26.727 22 28.9999V55.9999C22.4273 58.007 23.2852 58.7108 25.5 59.4999H51C53.3888 58.7388 54.0963 57.8171 54.5 55.4999V28.4999C53.493 26.2866 52.5736 25.5841 50.5 24.9999H46.5M28.5 15C27.7896 15.1274 27.5775 15.351 27.5 16V20C27.5891 20.7524 27.8479 20.9232 28.5 21H47.5C48.0903 20.9005 48.3087 20.6807 48.5 20V16C48.3784 15.3831 48.2027 15.1278 47.5 15H28.5ZM36.5 37.4999V41.4999H32V44.9999H36.5V49.4999H40V44.9999H44V41.4999H40V36.9999H36.5V37.4999Z" stroke="black" stroke-width="2"/>
<path d="M49 43C49 49.0751 44.0751 54 38 54C31.9249 54 27 49.0751 27 43C27 36.9249 31.9249 32 38 32C44.0751 32 49 36.9249 49 43Z" stroke="black" stroke-width="2"/>
</svg>
